<svg width="25" height="25" viewBox="0 0 25 25" fill="none" xmlns="http://www.w3.org/2000/svg">
<path d="M2.56696 6.44531H22.8795C23.3109 6.44531 23.6607 6.09556 23.6607 5.66406V3.71094C23.6607 3.27944 23.3109 2.92969 22.8795 2.92969H2.56696C2.13546 2.92969 1.78571 3.27944 1.78571 3.71094V5.66406C1.78571 6.09556 2.13546 6.44531 2.56696 6.44531ZM2.56696 14.2578H22.8795C23.3109 14.2578 23.6607 13.9081 23.6607 13.4766V11.5234C23.6607 11.0919 23.3109 10.7422 22.8795 10.7422H2.56696C2.13546 10.7422 1.78571 11.0919 1.78571 11.5234V13.4766C1.78571 13.9081 2.13546 14.2578 2.56696 14.2578ZM2.56696 22.0703H22.8795C23.3109 22.0703 23.6607 21.7206 23.6607 21.2891V19.3359C23.6607 18.9044 23.3109 18.5547 22.8795 18.5547H2.56696C2.13546 18.5547 1.78571 18.9044 1.78571 19.3359V21.2891C1.78571 21.7206 2.13546 22.0703 2.56696 22.0703Z" fill="#767676"/>
</svg>
