<svg width="26" height="26" viewBox="0 0 26 26" fill="none" xmlns="http://www.w3.org/2000/svg">
<g clip-path="url(#clip0_35_3056)">
<path d="M23.1391 0.1611L1.25287 9.64188C0.843484 9.81741 0.502101 10.1211 0.28012 10.5072C0.0581394 10.8934 -0.0323789 11.3412 0.021977 11.7833C0.0763329 12.2254 0.272699 12.6379 0.581614 12.9588C0.890529 13.2797 1.29531 13.4916 1.73502 13.5628L9.4803 14.8483C9.90462 14.9106 10.2982 15.106 10.6043 15.4064C10.9104 15.7067 11.1134 16.0965 11.1837 16.5196L12.4692 24.297C12.5403 24.7367 12.7522 25.1415 13.0731 25.4504C13.394 25.7593 13.8066 25.9557 14.2487 26.01C14.6908 26.0644 15.1385 25.9738 15.5247 25.7518C15.9109 25.5298 16.2146 25.1884 16.3901 24.7791L25.8389 2.86072C26.0002 2.48305 26.0448 2.06564 25.9669 1.66239C25.8891 1.25914 25.6922 0.888453 25.4018 0.598041C25.1114 0.307629 24.7407 0.110795 24.3375 0.0329113C23.9342 -0.0449725 23.5168 -0.000279331 23.1391 0.1611Z" fill="#2FC3B1"/>
</g>
<defs>
<clipPath id="clip0_35_3056">
<rect width="26" height="26" fill="white"/>
</clipPath>
</defs>
</svg>
