<svg width="28" height="28" viewBox="0 0 28 28" fill="none" xmlns="http://www.w3.org/2000/svg">
<g clip-path="url(#clip0_35_2065)">
<path d="M26.0001 -0.0298959L18.2601 0.870098C18.0389 0.892622 17.8286 0.977734 17.6541 1.11543C17.4795 1.25312 17.3477 1.43769 17.2742 1.64756C17.2008 1.85743 17.1886 2.08391 17.2393 2.30043C17.2899 2.51694 17.4012 2.71454 17.5601 2.8701L19.98 5.29011L11.54 13.7301C11.2616 14.0126 11.1055 14.3934 11.1055 14.7901C11.1055 15.1868 11.2616 15.5676 11.54 15.8501C11.6785 15.9903 11.8436 16.1015 12.0256 16.177C12.2077 16.2526 12.403 16.291 12.6 16.2901C12.7974 16.2928 12.9931 16.2551 13.1754 16.1795C13.3577 16.1038 13.5226 15.9917 13.66 15.8501L22.11 7.41011L24.41 9.71009C24.5666 9.86479 24.7632 9.97262 24.9778 10.0214C25.1924 10.0702 25.4164 10.0581 25.6244 9.98631C25.8324 9.91454 26.0162 9.78605 26.155 9.61531C26.2939 9.44457 26.3822 9.23839 26.41 9.02009L27.3 1.27009C27.321 1.09434 27.3017 0.916152 27.2438 0.748913C27.1858 0.581673 27.0907 0.429759 26.9656 0.304607C26.8404 0.179455 26.6885 0.0843181 26.5212 0.0263785C26.354 -0.031561 26.1758 -0.0508005 26.0001 -0.0298959Z" fill="#2FC3B1"/>
<path d="M24.11 15.88C23.7255 15.7829 23.3182 15.842 22.9771 16.0444C22.636 16.2467 22.389 16.576 22.29 16.96C21.8735 18.61 21.0337 20.1227 19.8535 21.3487C18.6733 22.5747 17.1937 23.4715 15.5608 23.9506C13.9279 24.4296 12.1983 24.4744 10.5428 24.0803C8.88737 23.6862 7.36337 22.8671 6.12144 21.7037C4.87951 20.5403 3.96264 19.073 3.46141 17.4468C2.96017 15.8206 2.89196 14.0917 3.26347 12.431C3.63497 10.7704 4.43332 9.23537 5.57969 7.97773C6.72607 6.72009 8.18077 5.78336 9.80003 5.26005C9.98782 5.19964 10.1619 5.10284 10.3122 4.97517C10.4626 4.84749 10.5864 4.69144 10.6764 4.51594C10.7665 4.34044 10.8211 4.14889 10.8372 3.95228C10.8533 3.75567 10.8304 3.55783 10.77 3.37004C10.7096 3.18225 10.6128 3.00821 10.4851 2.85783C10.3575 2.70745 10.2014 2.58367 10.0259 2.4936C9.85042 2.40353 9.65887 2.34892 9.46226 2.33287C9.26565 2.31681 9.06783 2.33963 8.88004 2.40003C6.76473 3.08397 4.86437 4.30789 3.36674 5.95088C1.86911 7.59387 0.825997 9.59909 0.340372 11.7685C-0.145252 13.938 -0.056552 16.1966 0.597697 18.3213C1.25195 20.446 2.44911 22.3632 4.07096 23.8837C5.69282 25.4042 7.68325 26.4753 9.84568 26.9913C12.0081 27.5072 14.2677 27.4502 16.4013 26.8258C18.535 26.2013 20.4688 25.0311 22.0119 23.4307C23.5549 21.8303 24.6539 19.855 25.2001 17.7001C25.248 17.509 25.2578 17.3103 25.229 17.1155C25.2002 16.9206 25.1332 16.7333 25.032 16.5643C24.9307 16.3953 24.7973 16.2479 24.6391 16.1305C24.4809 16.0131 24.3011 15.928 24.11 15.88Z" fill="#2FC3B1"/>
</g>
<defs>
<clipPath id="clip0_35_2065">
<rect width="27.31" height="27.34" fill="white"/>
</clipPath>
</defs>
</svg>
