<svg width="33" height="33" viewBox="0 0 33 33" fill="none" xmlns="http://www.w3.org/2000/svg">
<g clip-path="url(#clip0_32_801)">
<path d="M28.1639 4.85225C25.4517 2.14489 21.8834 0.465734 18.0702 0.10245C14.257 -0.260834 10.4362 0.714358 7.26245 2.86097C7.09437 2.97915 6.88839 3.03049 6.68457 3.00499C6.48076 2.97949 6.29372 2.87898 6.15988 2.72304L4.82955 1.1576C4.70967 1.01634 4.55235 0.911872 4.37573 0.856204C4.19912 0.800536 4.0104 0.79594 3.83129 0.842952C3.65217 0.889965 3.48998 0.986668 3.36339 1.12192C3.23679 1.25718 3.15094 1.42548 3.11574 1.60743L1.91727 7.68923C1.87889 7.87479 1.88323 8.06667 1.92999 8.2503C1.97676 8.43392 2.0647 8.60446 2.18715 8.74899C2.3096 8.89352 2.46333 9.00824 2.63669 9.08442C2.81004 9.16061 2.99847 9.19626 3.18765 9.18868L9.38378 8.97876C9.56866 8.97163 9.7478 8.91273 9.9009 8.80875C10.054 8.70477 10.1749 8.55987 10.2498 8.39054C10.3247 8.22121 10.3507 8.03424 10.3247 7.85089C10.2987 7.66754 10.2218 7.49516 10.1028 7.35335L9.18602 6.27974C9.10891 6.18782 9.05255 6.08031 9.02077 5.96458C8.989 5.84885 8.98256 5.72762 9.0019 5.60918C9.02125 5.49073 9.0659 5.37786 9.13284 5.27828C9.19978 5.1787 9.28741 5.09474 9.38974 5.03218C12.2299 3.27034 15.6207 2.62216 18.9097 3.21234C22.1986 3.80252 25.1533 5.58937 27.2051 8.22903C28.6902 10.1314 29.6325 12.401 29.9316 14.7966C30.1472 16.6196 29.9902 18.4673 29.4703 20.2277C28.9504 21.988 28.0784 23.6242 26.9073 25.0369C25.7361 26.4495 24.2903 27.6091 22.6576 28.4452C21.0249 29.2813 19.2394 29.7765 17.4096 29.9006C15.5798 30.0247 13.7439 29.7752 12.0134 29.1673C10.283 28.5594 8.69398 27.6056 7.3431 26.3641C5.99222 25.1226 4.90761 23.6191 4.15515 21.9451C3.40269 20.271 2.99809 18.4614 2.96593 16.626C2.96677 16.4299 2.92843 16.2357 2.85314 16.0548C2.77785 15.8738 2.66715 15.7097 2.52755 15.5723C2.38795 15.4348 2.22226 15.3266 2.04027 15.2542C1.85827 15.1818 1.66365 15.1465 1.46784 15.1505C1.27268 15.1521 1.07972 15.1921 0.900018 15.2683C0.720315 15.3445 0.557376 15.4554 0.420489 15.5946C0.283603 15.7339 0.175445 15.8988 0.102218 16.0798C0.0289901 16.2609 -0.00787915 16.4546 -0.00629893 16.65C0.0235925 20.1419 1.15839 23.5345 3.23508 26.3405C5.31178 29.1465 8.22354 31.2216 11.5522 32.2678C14.8808 33.3139 18.4551 33.2773 21.7616 32.1631C25.0681 31.0489 27.9368 28.9146 29.9556 26.0665C31.524 23.874 32.519 21.3234 32.8499 18.6472C33.1778 16.1421 32.9258 13.5951 32.1132 11.2031C31.3007 8.81107 29.9494 6.63812 28.1639 4.85225Z" fill="#2FC3B1"/>
</g>
<defs>
<clipPath id="clip0_32_801">
<rect width="33" height="33" fill="white"/>
</clipPath>
</defs>
</svg>
